<svg class="benefit-diagram bearing-premium" viewBox="0 0 620 330" fill="none" xmlns="http://www.w3.org/2000/svg" aria-hidden="true">
<defs>
<linearGradient id="bearing-steel" x1="0" y1="0" x2="1" y2="1"><stop stop-color="#f0f5ef"/><stop offset=".19" stop-color="#8ba4ae"/><stop offset=".37" stop-color="#263e4b"/><stop offset=".52" stop-color="#cee0e3"/><stop offset=".7" stop-color="#66818e"/><stop offset="1" stop-color="#172b38"/></linearGradient>
<linearGradient id="bearing-edge" x1="0" y1="0" x2="0" y2="1"><stop stop-color="#65828f"/><stop offset=".5" stop-color="#101d26"/><stop offset="1" stop-color="#3e5b6b"/></linearGradient>
<radialGradient id="bearing-ball" cx=".3" cy=".22" r=".85"><stop stop-color="#f5faf5"/><stop offset=".18" stop-color="#d5e5e7"/><stop offset=".48" stop-color="#7896a5"/><stop offset=".77" stop-color="#29414f"/><stop offset="1" stop-color="#0a1720"/></radialGradient>
<radialGradient id="bearing-well"><stop stop-color="#06131c"/><stop offset=".8" stop-color="#142b37"/><stop offset="1" stop-color="#6e8892"/></radialGradient>
<linearGradient id="bearing-shaft" x2="0" y2="1"><stop stop-color="#8ea5ae"/><stop offset=".24" stop-color="#dbe6e7"/><stop offset=".48" stop-color="#6b8390"/><stop offset=".7" stop-color="#213542"/><stop offset="1" stop-color="#a1b7bf"/></linearGradient>
<linearGradient id="bearing-scan"><stop stop-color="#a1d3e2" stop-opacity="0"/><stop offset="1" stop-color="#a1d3e2" stop-opacity=".14"/></linearGradient>
<radialGradient id="bearing-shadow"><stop stop-color="#030c12" stop-opacity=".8"/><stop offset="1" stop-color="#030c12" stop-opacity="0"/></radialGradient>
<pattern id="bearing-grid" width="24" height="24" patternUnits="userSpaceOnUse"><path d="M24 0H0v24" stroke="#a3c4d4" stroke-opacity=".08" stroke-width=".6"/></pattern>
<clipPath id="bearing-trace-clip"><rect x="337" y="102" width="252" height="151" rx="3"/></clipPath>
<pattern id="finish-1" width="6" height="6" patternUnits="userSpaceOnUse"><path d="M0 .5h6M0 3.5h6" stroke="#dcecf1" stroke-opacity=".10" stroke-width=".5"/><circle cx="2" cy="2" r=".4" fill="#020e16" fill-opacity=".22"/></pattern></defs>
<rect x="8" y="20" width="604" height="278" fill="url(#bearing-grid)"/>
<ellipse cx="160" cy="273" rx="139" ry="22" fill="url(#bearing-shadow)"/>
<path d="M34 270h242" stroke="#7395a3" stroke-opacity=".2"/>
<circle cx="152" cy="151" r="114" fill="url(#bearing-edge)" stroke="#557583"/>
<circle cx="152" cy="151" r="111" fill="url(#bearing-steel)" stroke="#a7bdc6" stroke-width="1.3"/>
<circle cx="152" cy="151" r="104" stroke="#eff7f6" stroke-opacity=".45"/>
<circle cx="152" cy="151" r="92" fill="#14232e" stroke="#09141c" stroke-width="4"/>
<circle cx="152" cy="151" r="87" stroke="#acbfc6" stroke-opacity=".65"/>
<circle cx="152" cy="151" r="67" stroke="#5d7075" stroke-width="30"/>
<circle cx="152" cy="151" r="82" stroke="#c0a27d" stroke-opacity=".65"/>
<circle cx="152" cy="151" r="51" stroke="#baa588" stroke-opacity=".6"/>
<g stroke="#c9dce2" stroke-opacity=".18" stroke-width=".5"><circle cx="152" cy="151" r="95"/><circle cx="152" cy="151" r="97"/><circle cx="152" cy="151" r="99"/><circle cx="152" cy="151" r="101"/><circle cx="152" cy="151" r="106"/><circle cx="152" cy="151" r="108"/><circle cx="152" cy="151" r="110"/><circle cx="152" cy="151" r="38"/><circle cx="152" cy="151" r="40"/><circle cx="152" cy="151" r="42"/></g><g class="bearing-cage"><circle cx="219.00" cy="151.00" r="14" fill="url(#bearing-ball)" stroke="#d6e6eb" stroke-opacity=".35"/><circle cx="210.02" cy="184.50" r="14" fill="url(#bearing-ball)" stroke="#d6e6eb" stroke-opacity=".35"/><circle cx="185.50" cy="209.02" r="14" fill="url(#bearing-ball)" stroke="#d6e6eb" stroke-opacity=".35"/><circle cx="152.00" cy="218.00" r="14" fill="url(#bearing-ball)" stroke="#d6e6eb" stroke-opacity=".35"/><circle cx="118.50" cy="209.02" r="14" fill="url(#bearing-ball)" stroke="#d6e6eb" stroke-opacity=".35"/><circle cx="93.98" cy="184.50" r="14" fill="url(#bearing-ball)" stroke="#d6e6eb" stroke-opacity=".35"/><circle cx="85.00" cy="151.00" r="14" fill="url(#bearing-ball)" stroke="#d6e6eb" stroke-opacity=".35"/><circle cx="93.98" cy="117.50" r="14" fill="url(#bearing-ball)" stroke="#d6e6eb" stroke-opacity=".35"/><circle cx="118.50" cy="92.98" r="14" fill="url(#bearing-ball)" stroke="#d6e6eb" stroke-opacity=".35"/><circle cx="152.00" cy="84.00" r="14" fill="url(#bearing-ball)" stroke="#d6e6eb" stroke-opacity=".35"/><circle cx="185.50" cy="92.98" r="14" fill="url(#bearing-ball)" stroke="#d6e6eb" stroke-opacity=".35"/><circle cx="210.02" cy="117.50" r="14" fill="url(#bearing-ball)" stroke="#d6e6eb" stroke-opacity=".35"/></g>
<circle cx="152" cy="151" r="45" fill="url(#bearing-steel)" stroke="#c0d1d5"/>
<circle cx="152" cy="151" r="34" fill="url(#bearing-well)" stroke="#07131c" stroke-width="3"/>
<!-- Coaxial front view: bearing races and shaft share a single center. -->
<circle cx="152" cy="151" r="30" fill="url(#bearing-shaft)" stroke="#c0d3db" stroke-width="1.2"/>
<circle cx="152" cy="151" r="27" fill="url(#bearing-steel)" stroke="#e0eaed" stroke-opacity=".6"/>
<circle cx="152" cy="151" r="24" stroke="#102b3a" stroke-opacity=".25" stroke-width=".7"/>
<circle cx="152" cy="151" r="21" stroke="#e5eff2" stroke-opacity=".18" stroke-width=".6"/>
<circle cx="152" cy="151" r="18" stroke="#102b3a" stroke-opacity=".18" stroke-width=".6"/>
<path d="M147 121v10h10v-10" fill="#142a36" stroke="#a2bac5" stroke-width="1"/>
<circle cx="152" cy="151" r="3" fill="#314b59" stroke="#a9c2ca" stroke-width=".7"/>
<g transform="translate(254.00 151.00)"><circle r="5.5" fill="#111f28" stroke="#8eabb8"/><path d="M-2.5 0h5" stroke="#8eabb8"/></g><g transform="translate(203.00 239.33)"><circle r="5.5" fill="#111f28" stroke="#8eabb8"/><path d="M-2.5 0h5" stroke="#8eabb8"/></g><g transform="translate(101.00 239.33)"><circle r="5.5" fill="#111f28" stroke="#8eabb8"/><path d="M-2.5 0h5" stroke="#8eabb8"/></g><g transform="translate(50.00 151.00)"><circle r="5.5" fill="#111f28" stroke="#8eabb8"/><path d="M-2.5 0h5" stroke="#8eabb8"/></g><g transform="translate(101.00 62.67)"><circle r="5.5" fill="#111f28" stroke="#8eabb8"/><path d="M-2.5 0h5" stroke="#8eabb8"/></g><g transform="translate(203.00 62.67)"><circle r="5.5" fill="#111f28" stroke="#8eabb8"/><path d="M-2.5 0h5" stroke="#8eabb8"/></g>
<path d="M81 76a104 104 0 0 1 136-4" stroke="#eff8f8" stroke-opacity=".7" stroke-width="1.5"/>
<path d="M52 185a106 106 0 0 0 156 60" stroke="#0b1b24" stroke-opacity=".6" stroke-width="2"/>
<g class="bearing-impact"><circle cx="216" cy="176" r="20" stroke="#e0b183" stroke-opacity=".6"/><circle cx="216" cy="176" r="5" fill="#dfb088"/><path d="m212 168 5 5-3 4 6 5" stroke="#ffe0ad" stroke-width="1.5"/></g>
<g><path d="M142 41V27h23v14" fill="url(#bearing-edge)" stroke="#b7ced6"/><rect x="145" y="19" width="17" height="13" rx="3" fill="url(#bearing-steel)"/><path d="M150 19v-6h7v6" fill="#c7dce1"/><circle class="bearing-led" cx="154" cy="26" r="2.5" fill="#a9e4d9"/></g>
<path d="M157 13h112q18 0 18 18v30q0 18 18 18h32" stroke="#81a0af" stroke-opacity=".35" stroke-width="2"/>
<path class="bearing-data" d="M157 13h112q18 0 18 18v30q0 18 18 18h32" stroke="#c5e2e9" stroke-width="2" stroke-dasharray="5 19"/>
<rect x="322" y="48" width="282" height="229" rx="10" fill="#0a1c27" fill-opacity=".88" stroke="#668797" stroke-opacity=".45"/>
<path d="M338 87h250M338 172h250" stroke="#7493a1" stroke-opacity=".22"/>
<text x="340" y="74" class="bearing-label">VIBRACIONES</text><circle class="bearing-led" cx="584" cy="69" r="3" fill="#a9e4d9"/>
<text x="340" y="109" class="bearing-small">Referencia estable</text>
<text x="340" y="199" class="bearing-small bearing-amber">Cambio detectado</text>
<g clip-path="url(#bearing-trace-clip)"><path d="M337 142h252M337 231h252" stroke="#6e91a1" stroke-opacity=".2"/><g transform="translate(337 0)"><g class="bearing-signal"><polyline points="0,142.00 1,144.57 2,146.01 3,146.00 4,145.16 5,144.46 6,144.41 7,144.61 8,144.16 9,142.51 10,140.00 11,137.76 12,136.86 13,137.57 14,139.17 15,140.57 16,141.20 17,141.36 18,141.90 19,143.38 20,145.46 21,147.08 22,147.24 23,145.79 24,143.53 25,141.64 26,140.76 27,140.62 28,140.36 29,139.40 30,138.00 31,137.13 32,137.70 33,139.75 34,142.40 35,144.44 36,145.17 37,144.92 38,144.58 39,144.82 40,145.46 41,145.65 42,144.57 43,142.22 44,139.55 45,137.77 46,137.52 47,138.44 48,139.53 49,140.02 50,140.00 51,140.24 52,141.50 53,143.75 54,146.06 55,147.26 56,146.80 57,145.13 58,143.35 59,142.30 60,142.00 61,141.70 62,140.65 63,138.87 64,137.20 65,136.74 66,137.94 67,140.25 68,142.50 69,143.76 70,144.00 71,143.98 72,144.47 73,145.56 74,146.48 75,146.23 76,144.45 77,141.78 78,139.43 79,138.35 80,138.54 81,139.18 82,139.42 83,139.08 84,138.83 85,139.56 86,141.60 87,144.25 88,146.30 89,146.87 90,146.00 91,144.60 92,143.64 93,143.38 94,143.24 95,142.36 96,140.47 97,138.21 98,136.76 99,136.92 100,138.54 101,140.62 102,142.10 103,142.64 104,142.80 105,143.43 106,144.83 107,146.43 108,147.14 109,146.24 110,144.00 111,141.49 112,139.84 113,139.39 114,139.59 115,139.54 116,138.84 117,138.00 118,137.99 119,139.43 120,142.00 121,144.57 122,146.01 123,146.00 124,145.16 125,144.46 126,144.41 127,144.61 128,144.16 129,142.51 130,140.00 131,137.76 132,136.86 133,137.57 134,139.17 135,140.57 136,141.20 137,141.36 138,141.90 139,143.38 140,145.46 141,147.08 142,147.24 143,145.79 144,143.53 145,141.64 146,140.76 147,140.62 148,140.36 149,139.40 150,138.00 151,137.13 152,137.70 153,139.75 154,142.40 155,144.44 156,145.17 157,144.92 158,144.58 159,144.82 160,145.46 161,145.65 162,144.57 163,142.22 164,139.55 165,137.77 166,137.52 167,138.44 168,139.53 169,140.02 170,140.00 171,140.24 172,141.50 173,143.75 174,146.06 175,147.26 176,146.80 177,145.13 178,143.35 179,142.30 180,142.00 181,141.70 182,140.65 183,138.87 184,137.20 185,136.74 186,137.94 187,140.25 188,142.50 189,143.76 190,144.00 191,143.98 192,144.47 193,145.56 194,146.48 195,146.23 196,144.45 197,141.78 198,139.43 199,138.35 200,138.54 201,139.18 202,139.42 203,139.08 204,138.83 205,139.56 206,141.60 207,144.25 208,146.30 209,146.87 210,146.00 211,144.60 212,143.64 213,143.38 214,143.24 215,142.36 216,140.47 217,138.21 218,136.76 219,136.92 220,138.54 221,140.62 222,142.10 223,142.64 224,142.80 225,143.43 226,144.83 227,146.43 228,147.14 229,146.24 230,144.00 231,141.49 232,139.84 233,139.39 234,139.59 235,139.54 236,138.84 237,138.00 238,137.99 239,139.43 240,142.00 241,144.57 242,146.01 243,146.00 244,145.16 245,144.46 246,144.41 247,144.61 248,144.16 249,142.51 250,140.00 251,137.76 252,136.86 253,137.57 254,139.17 255,140.57 256,141.20 257,141.36 258,141.90 259,143.38 260,145.46 261,147.08 262,147.24 263,145.79 264,143.53 265,141.64 266,140.76 267,140.62 268,140.36 269,139.40 270,138.00 271,137.13 272,137.70 273,139.75 274,142.40 275,144.44 276,145.17 277,144.92 278,144.58 279,144.82 280,145.46 281,145.65 282,144.57 283,142.22 284,139.55 285,137.77 286,137.52 287,138.44 288,139.53 289,140.02 290,140.00 291,140.24 292,141.50 293,143.75 294,146.06 295,147.26 296,146.80 297,145.13 298,143.35 299,142.30 300,142.00 301,141.70 302,140.65 303,138.87 304,137.20 305,136.74 306,137.94 307,140.25 308,142.50 309,143.76 310,144.00 311,143.98 312,144.47 313,145.56 314,146.48 315,146.23 316,144.45 317,141.78 318,139.43 319,138.35 320,138.54 321,139.18 322,139.42 323,139.08 324,138.83 325,139.56 326,141.60 327,144.25 328,146.30 329,146.87 330,146.00 331,144.60 332,143.64 333,143.38 334,143.24 335,142.36 336,140.47 337,138.21 338,136.76 339,136.92 340,138.54 341,140.62 342,142.10 343,142.64 344,142.80 345,143.43 346,144.83 347,146.43 348,147.14 349,146.24 350,144.00 351,141.49 352,139.84 353,139.39 354,139.59 355,139.54 356,138.84 357,138.00 358,137.99 359,139.43 360,142.00 361,144.57 362,146.01 363,146.00 364,145.16 365,144.46 366,144.41 367,144.61 368,144.16 369,142.51 370,140.00 371,137.76 372,136.86 373,137.57 374,139.17 375,140.57 376,141.20 377,141.36 378,141.90 379,143.38 380,145.46 381,147.08 382,147.24 383,145.79 384,143.53 385,141.64 386,140.76 387,140.62 388,140.36 389,139.40 390,138.00 391,137.13 392,137.70 393,139.75 394,142.40 395,144.44 396,145.17 397,144.92 398,144.58 399,144.82 400,145.46 401,145.65 402,144.57 403,142.22 404,139.55 405,137.77 406,137.52 407,138.44 408,139.53 409,140.02 410,140.00 411,140.24 412,141.50 413,143.75 414,146.06 415,147.26 416,146.80 417,145.13 418,143.35 419,142.30 420,142.00 421,141.70 422,140.65 423,138.87 424,137.20 425,136.74 426,137.94 427,140.25 428,142.50 429,143.76 430,144.00 431,143.98 432,144.47 433,145.56 434,146.48 435,146.23 436,144.45 437,141.78 438,139.43 439,138.35 440,138.54 441,139.18 442,139.42 443,139.08 444,138.83 445,139.56 446,141.60 447,144.25 448,146.30 449,146.87 450,146.00 451,144.60 452,143.64 453,143.38 454,143.24 455,142.36 456,140.47 457,138.21 458,136.76 459,136.92 460,138.54 461,140.62 462,142.10 463,142.64 464,142.80 465,143.43 466,144.83 467,146.43 468,147.14 469,146.24 470,144.00 471,141.49 472,139.84 473,139.39 474,139.59 475,139.54 476,138.84 477,138.00 478,137.99 479,139.43 480,142.00 481,144.57 482,146.01 483,146.00 484,145.16 485,144.46 486,144.41 487,144.61 488,144.16 489,142.51 490,140.00 491,137.76 492,136.86 493,137.57 494,139.17 495,140.57 496,141.20 497,141.36 498,141.90 499,143.38" stroke="#b2d6e0" stroke-width="1.4"/><polyline points="0,231.00 1,233.57 2,235.01 3,235.00 4,234.16 5,233.46 6,233.41 7,233.61 8,233.16 9,231.51 10,229.00 11,226.76 12,225.86 13,226.57 14,228.17 15,229.57 16,230.20 17,230.36 18,230.90 19,232.38 20,234.46 21,236.08 22,236.24 23,234.79 24,232.53 25,230.64 26,229.76 27,229.62 28,229.36 29,228.40 30,227.00 31,226.13 32,226.70 33,228.75 34,231.40 35,233.44 36,234.17 37,233.92 38,233.58 39,233.82 40,234.46 41,234.65 42,233.57 43,231.22 44,228.55 45,226.77 46,226.52 47,227.44 48,228.53 49,229.02 50,229.00 51,229.24 52,230.50 53,232.75 54,235.06 55,236.26 56,235.80 57,234.13 58,232.35 59,231.30 60,231.00 61,230.70 62,229.65 63,227.87 64,226.20 65,225.74 66,226.94 67,229.25 68,231.50 69,232.76 70,233.00 71,232.98 72,233.47 73,234.56 74,235.48 75,235.23 76,233.45 77,230.78 78,228.43 79,227.34 80,227.52 81,228.17 82,228.40 83,228.06 84,227.79 85,228.53 86,230.59 87,233.29 88,235.41 89,236.01 90,235.15 91,233.72 92,232.73 93,232.48 94,232.34 95,231.40 96,229.29 97,226.67 98,224.86 99,224.89 100,226.71 101,229.23 102,231.13 103,231.89 104,232.16 105,233.16 106,235.49 107,238.39 108,240.04 109,238.90 110,234.94 111,229.94 112,226.20 113,224.85 114,224.96 115,224.46 116,222.11 117,219.07 118,218.34 119,222.44 120,231.00 121,240.50 122,246.57 123,247.26 124,244.40 125,241.89 126,242.07 127,243.39 128,241.58 129,233.55 130,220.71 131,208.73 132,203.58 133,207.05 134,215.54 135,223.16 136,226.58 137,227.48 138,230.48 139,238.49 140,249.50 141,257.70 142,257.99 143,250.04 144,238.48 145,229.27 146,225.31 147,224.89 148,224.03 149,220.42 150,215.46 151,212.98 152,215.86 153,223.50 154,232.28 155,238.27 156,239.94 157,238.76 158,237.46 159,237.64 160,238.69 161,238.63 162,236.06 163,231.42 164,226.69 165,223.95 166,223.91 167,225.62 168,227.44 169,228.27 170,228.35 171,228.75 172,230.38 173,233.10 174,235.75 175,237.02 176,236.37 177,234.44 178,232.46 179,231.32 180,231.00 181,230.69 182,229.61 183,227.77 184,226.08 185,225.63 186,226.88 187,229.23 188,231.50 189,232.77 190,233.01 191,232.99 192,233.48 193,234.57 194,235.49 195,235.24 196,233.45 197,230.78 198,228.43 199,227.35 200,227.53 201,228.18 202,228.42 203,228.08 204,227.83 205,228.56 206,230.60 207,233.25 208,235.30 209,235.87 210,235.00 211,233.60 212,232.64 213,232.38 214,232.24 215,231.36 216,229.47 217,227.21 218,225.76 219,225.92 220,227.54 221,229.62 222,231.10 223,231.64 224,231.80 225,232.43 226,233.83 227,235.43 228,236.14 229,235.24 230,233.00 231,230.49 232,228.84 233,228.39 234,228.59 235,228.54 236,227.84 237,227.00 238,226.99 239,228.43 240,231.00 241,233.57 242,235.01 243,235.00 244,234.16 245,233.46 246,233.41 247,233.61 248,233.16 249,231.51 250,229.00 251,226.76 252,225.86 253,226.57 254,228.17 255,229.57 256,230.20 257,230.36 258,230.90 259,232.38 260,234.46 261,236.08 262,236.24 263,234.79 264,232.53 265,230.64 266,229.76 267,229.62 268,229.36 269,228.40 270,227.00 271,226.13 272,226.70 273,228.75 274,231.40 275,233.44 276,234.17 277,233.92 278,233.58 279,233.82 280,234.46 281,234.65 282,233.57 283,231.22 284,228.55 285,226.77 286,226.52 287,227.44 288,228.53 289,229.02 290,229.00 291,229.24 292,230.50 293,232.75 294,235.06 295,236.26 296,235.80 297,234.13 298,232.35 299,231.30 300,231.00 301,230.70 302,229.65 303,227.87 304,226.20 305,225.74 306,226.94 307,229.25 308,231.50 309,232.76 310,233.00 311,232.98 312,233.47 313,234.56 314,235.48 315,235.23 316,233.45 317,230.78 318,228.43 319,227.34 320,227.52 321,228.17 322,228.40 323,228.06 324,227.79 325,228.53 326,230.59 327,233.29 328,235.41 329,236.01 330,235.15 331,233.72 332,232.73 333,232.48 334,232.34 335,231.40 336,229.29 337,226.67 338,224.86 339,224.89 340,226.71 341,229.23 342,231.13 343,231.89 344,232.16 345,233.16 346,235.49 347,238.39 348,240.04 349,238.90 350,234.94 351,229.94 352,226.20 353,224.85 354,224.96 355,224.46 356,222.11 357,219.07 358,218.34 359,222.44 360,231.00 361,240.50 362,246.57 363,247.26 364,244.40 365,241.89 366,242.07 367,243.39 368,241.58 369,233.55 370,220.71 371,208.73 372,203.58 373,207.05 374,215.54 375,223.16 376,226.58 377,227.48 378,230.48 379,238.49 380,249.50 381,257.70 382,257.99 383,250.04 384,238.48 385,229.27 386,225.31 387,224.89 388,224.03 389,220.42 390,215.46 391,212.98 392,215.86 393,223.50 394,232.28 395,238.27 396,239.94 397,238.76 398,237.46 399,237.64 400,238.69 401,238.63 402,236.06 403,231.42 404,226.69 405,223.95 406,223.91 407,225.62 408,227.44 409,228.27 410,228.35 411,228.75 412,230.38 413,233.10 414,235.75 415,237.02 416,236.37 417,234.44 418,232.46 419,231.32 420,231.00 421,230.69 422,229.61 423,227.77 424,226.08 425,225.63 426,226.88 427,229.23 428,231.50 429,232.77 430,233.01 431,232.99 432,233.48 433,234.57 434,235.49 435,235.24 436,233.45 437,230.78 438,228.43 439,227.35 440,227.53 441,228.18 442,228.42 443,228.08 444,227.83 445,228.56 446,230.60 447,233.25 448,235.30 449,235.87 450,235.00 451,233.60 452,232.64 453,232.38 454,232.24 455,231.36 456,229.47 457,227.21 458,225.76 459,225.92 460,227.54 461,229.62 462,231.10 463,231.64 464,231.80 465,232.43 466,233.83 467,235.43 468,236.14 469,235.24 470,233.00 471,230.49 472,228.84 473,228.39 474,228.59 475,228.54 476,227.84 477,227.00 478,226.99 479,228.43 480,231.00 481,233.57 482,235.01 483,235.00 484,234.16 485,233.46 486,233.41 487,233.61 488,233.16 489,231.51 490,229.00 491,226.76 492,225.86 493,226.57 494,228.17 495,229.57 496,230.20 497,230.36 498,230.90 499,232.38" stroke="#e2b487" stroke-width="1.5"/></g></g><rect class="bearing-sweep" x="320" y="114" width="50" height="139" fill="url(#bearing-scan)"/></g>
<path d="M273 180h23v51h26" stroke="#dfb088" stroke-opacity=".5" stroke-dasharray="2 5"/><path d="m264 176 9 4-9 4" stroke="#dfb088" stroke-opacity=".5"/>
<text x="30" y="310" class="bearing-small">RODAMIENTO · SENSOR · DIAGNÓSTICO</text>
<text x="600" y="310" text-anchor="end" class="bearing-small">MODELO ILUSTRATIVO</text>
</svg>