<svg class="benefit-diagram" viewBox="0 0 360 190" fill="none" stroke="currentColor" stroke-width="1.2" stroke-linecap="round" stroke-linejoin="round" aria-hidden="true"><g class="benefit-grid"><path d="M20 20v150"/><path d="M50 20v150"/><path d="M80 20v150"/><path d="M110 20v150"/><path d="M140 20v150"/><path d="M170 20v150"/><path d="M200 20v150"/><path d="M230 20v150"/><path d="M260 20v150"/><path d="M290 20v150"/><path d="M320 20v150"/><path d="M20 30h320"/><path d="M20 60h320"/><path d="M20 90h320"/><path d="M20 120h320"/><path d="M20 150h320"/></g><path d="M28 126h304M40 126V68h86v58M49 68V51h67v17M141 126V68h86v58M150 68V51h67v17M242 126V68h78v58"/><g class="machine-wheel" style="transform-origin:83px 93px"><circle cx="83" cy="93" r="17"/><path d="M71 93h24M83 81v24"/></g><g class="machine-wheel" style="transform-origin:184px 93px"><circle cx="184" cy="93" r="17"/><path d="M172 93h24M184 81v24"/></g><g class="machine-wheel" style="transform-origin:281px 93px"><circle cx="281" cy="93" r="17"/><path d="M269 93h24M281 81v24"/></g><path class="production-route" d="M25 27h310"/><path class="production-flow" d="M25 27h310"/><path d="m326 21 9 6-9 6"/><text x="38" y="157">CONTINUIDAD OPERATIVA</text></svg>