<svg class="benefit-diagram" viewBox="0 0 360 190" fill="none" stroke="currentColor" stroke-width="1.2" stroke-linecap="round" stroke-linejoin="round" aria-hidden="true"><g class="benefit-grid"><path d="M20 20v150"/><path d="M50 20v150"/><path d="M80 20v150"/><path d="M110 20v150"/><path d="M140 20v150"/><path d="M170 20v150"/><path d="M200 20v150"/><path d="M230 20v150"/><path d="M260 20v150"/><path d="M290 20v150"/><path d="M320 20v150"/><path d="M20 30h320"/><path d="M20 60h320"/><path d="M20 90h320"/><path d="M20 120h320"/><path d="M20 150h320"/></g><g class="asset-row asset-0"><rect x="23" y="19" width="36" height="32" rx="3"/><circle cx="41" cy="35" r="10"/><circle cx="41" cy="35" r="4"/><path d="M65 35h12"/><text x="86" y="29">EQUIPO A</text><path class="priority-track" d="M86 44h240"/><path class="priority-level" d="M86 44h188"/><circle cx="274" cy="44" r="3"/></g><g class="asset-row asset-1"><rect x="23" y="70" width="36" height="32" rx="3"/><circle cx="41" cy="86" r="10"/><circle cx="41" cy="86" r="4"/><path d="M65 86h12"/><text x="86" y="80">EQUIPO B</text><path class="priority-track" d="M86 95h240"/><path class="priority-level" d="M86 95h118"/><circle cx="204" cy="95" r="3"/></g><g class="asset-row asset-2"><rect x="23" y="121" width="36" height="32" rx="3"/><circle cx="41" cy="137" r="10"/><circle cx="41" cy="137" r="4"/><path d="M65 137h12"/><text x="86" y="131">EQUIPO C</text><path class="priority-track" d="M86 146h240"/><path class="priority-level" d="M86 146h55"/><circle cx="141" cy="146" r="3"/></g><path class="benefit-alert" d="m315 19 12 21h-24Z"/><path d="M315 25v6m0 4v1"/><text class="benefit-caption" x="20" y="181">ESQUEMA CONCEPTUAL</text></svg>