<svg xmlns="http://www.w3.org/2000/svg" viewBox="0 0 1800 274" fill="#f4f1ea">
  <title>SABATER</title>
  <defs>
    <path id="a" fill-rule="evenodd" d="M106 8H165L274 268H216L193 212H78L55 268H0L106 8ZM96 167H175L136 69L96 167Z"/>
  </defs>
  <path d="M207 30L183 72C158 57 133 49 105 49C76 49 57 60 57 77C57 95 78 101 115 109C170 120 223 136 223 188C223 242 178 274 113 274C70 274 29 262 0 241L25 198C51 215 82 225 113 225C146 225 165 213 165 194C165 176 143 168 107 161C50 150 2 134 2 82C2 31 46 0 107 0C146 0 181 11 207 30Z"/>
  <use href="#a" x="252"/>
  <path fill-rule="evenodd" d="M568 8H681C749 8 779 37 779 78C779 106 767 121 748 133C776 144 790 165 790 195C790 241 755 268 690 268H568V8ZM619 52V112H675C710 112 726 101 726 82C726 62 710 52 675 52H619ZM619 157V223H686C721 223 738 213 738 191C738 169 721 157 686 157H619Z"/>
  <use href="#a" x="821"/>
  <path d="M1078 8H1288V54H1209V268H1157V54H1078V8Z"/>
  <path d="M1336 8H1524V54H1388V113H1505V159H1388V222H1524V268H1336V8Z"/>
  <path fill-rule="evenodd" d="M1583 8H1691C1759 8 1798 40 1798 94C1798 131 1777 160 1740 172L1800 268H1736L1683 181H1635V268H1583V8ZM1635 54V135H1685C1726 135 1746 121 1746 95C1746 68 1726 54 1685 54H1635Z"/>
</svg>
