<svg class="tech-icon technical-illustration instrument-solution" width="360" height="220" viewBox="0 0 360 220" fill="none" stroke="#8bafc0" stroke-width="1" stroke-linecap="round" stroke-linejoin="round" aria-hidden="true"><defs><linearGradient id="solution-metal" x2=".8" y2="1"><stop stop-color="#7092a3"/><stop offset=".4" stop-color="#304f60"/><stop offset="1" stop-color="#122a38"/></linearGradient><radialGradient id="solution-halo"><stop stop-color="#81c8de" stop-opacity=".18"/><stop offset="1" stop-color="#81c8de" stop-opacity="0"/></radialGradient></defs><ellipse cx="180" cy="110" rx="160" ry="98" fill="url(#solution-halo)" stroke="none"/><g opacity=".13"><path d="M30 30v160"/><path d="M55 30v160"/><path d="M80 30v160"/><path d="M105 30v160"/><path d="M130 30v160"/><path d="M155 30v160"/><path d="M180 30v160"/><path d="M205 30v160"/><path d="M230 30v160"/><path d="M255 30v160"/><path d="M280 30v160"/><path d="M305 30v160"/><path d="M330 30v160"/><path d="M25 40h310"/><path d="M25 65h310"/><path d="M25 90h310"/><path d="M25 115h310"/><path d="M25 140h310"/><path d="M25 165h310"/><path d="M25 190h310"/></g><path d="M18 45V18h27M315 18h27v27M18 175v27h27M315 202h27v-27" opacity=".35"/><ellipse cx="181" cy="179" rx="123" ry="21" fill="#040d14" opacity=".5" stroke="none"/><path d="m54 151 116-47 133 46-117 49Z" fill="#304b58"/><path d="m54 151 132 42 117-43v8l-117 48-132-47Z" fill="#172e3a"/><g class="instrument-spring" style="transform-origin:96px 136px"><path d="M86 99l20 5-20 5 20 5-20 5 20 5-20 5 20 5" stroke="#afdae6" stroke-width="2"/><ellipse cx="96" cy="97" rx="13" ry="5" fill="#7895a2"/></g><g class="instrument-spring" style="transform-origin:179px 111px"><path d="M169 74l20 5-20 5 20 5-20 5 20 5-20 5 20 5" stroke="#afdae6" stroke-width="2"/><ellipse cx="179" cy="72" rx="13" ry="5" fill="#7895a2"/></g><g class="instrument-spring" style="transform-origin:181px 169px"><path d="M171 132l20 5-20 5 20 5-20 5 20 5-20 5 20 5" stroke="#afdae6" stroke-width="2"/><ellipse cx="181" cy="130" rx="13" ry="5" fill="#7895a2"/></g><g class="instrument-spring" style="transform-origin:258px 142px"><path d="M248 105l20 5-20 5 20 5-20 5 20 5-20 5 20 5" stroke="#afdae6" stroke-width="2"/><ellipse cx="258" cy="103" rx="13" ry="5" fill="#7895a2"/></g><g class="instrument-platform"><path d="m57 90 115-47 130 47-115 49Z" fill="url(#solution-metal)"/><path d="m57 90 130 42 115-42v9l-115 48-130-48Z" fill="#142d3c"/><path d="m139 70 33-14 41 14-34 15Z" fill="#91adb8"/><path d="m139 70v16l40 15 34-15V70M179 85v16"/></g><path d="M36 109v50m-5-44 5-6 5 6m-10 38 5 6 5-6M321 109v50" stroke="#d4ad89"/></svg>