<svg class="tech-icon technical-illustration" width="160" height="112" viewBox="0 0 160 112" fill="none" stroke="currentColor" stroke-width=".85" stroke-linecap="round" stroke-linejoin="round" aria-hidden="true"><path class="technical-grid" d="M8 96h144M8 96V8M8 20h4M8 36h4M8 52h4M8 68h4M8 84h4M24 96v-4M40 96v-4M56 96v-4M72 96v-4M88 96v-4M104 96v-4M120 96v-4M136 96v-4"/><circle class="technical-grid" cx="83" cy="49" r="40" stroke-dasharray="1 4"/><path class="technical-fill" d="m32 67 56-28 44 20-57 28Z"/><path d="m32 67 43 20 57-28M32 67v9l43 21 57-29v-9M75 87v10"/><path d="m73 40 13-6 12 6v22l-12 7-13-6Z"/><path d="m73 40 13 6 12-6M86 46v23M78 37V26l8-4 8 4v12M78 26l8 4 8-4M86 30v11"/><path class="icon-signal" d="M86 22V15c0-15 37-9 37 9v9"/><path d="m115 35 16-7 12 6v25l-16 8-12-6Z"/><path d="m120 39 11-5 7 3v16l-11 5-7-3Z"/><path class="icon-signal" d="m122 49 3-1 2-5 3 9 2-8 4-2"/><path class="technical-grid" d="m42 48 17-8M40 44l4 8M56 36l5 8M45 42l-3 6 6 1"/></svg>