<svg class="tech-icon technical-illustration instrument-support" width="360" height="220" viewBox="0 0 360 220" fill="none" stroke="#8bafc0" stroke-width="1" stroke-linecap="round" stroke-linejoin="round" aria-hidden="true"><defs><linearGradient id="support-metal" x2=".8" y2="1"><stop stop-color="#7092a3"/><stop offset=".4" stop-color="#304f60"/><stop offset="1" stop-color="#122a38"/></linearGradient><radialGradient id="support-halo"><stop stop-color="#81c8de" stop-opacity=".18"/><stop offset="1" stop-color="#81c8de" stop-opacity="0"/></radialGradient></defs><ellipse cx="180" cy="110" rx="160" ry="98" fill="url(#support-halo)" stroke="none"/><g opacity=".13"><path d="M30 30v160"/><path d="M55 30v160"/><path d="M80 30v160"/><path d="M105 30v160"/><path d="M130 30v160"/><path d="M155 30v160"/><path d="M180 30v160"/><path d="M205 30v160"/><path d="M230 30v160"/><path d="M255 30v160"/><path d="M280 30v160"/><path d="M305 30v160"/><path d="M330 30v160"/><path d="M25 40h310"/><path d="M25 65h310"/><path d="M25 90h310"/><path d="M25 115h310"/><path d="M25 140h310"/><path d="M25 165h310"/><path d="M25 190h310"/></g><path d="M18 45V18h27M315 18h27v27M18 175v27h27M315 202h27v-27" opacity=".35"/><path d="m79 37 135 10 41 33v111L79 180Z" fill="url(#support-metal)"/><path d="m214 47 1 34 40-1"/><path d="m97 66 86 7M97 86l112 9M97 95l97 8"/><g opacity=".4"><path d="M99 121l108 9M99 142l83 8M99 165l53 5"/></g><path class="instrument-trace" d="M100 126l12 1 8-16 9 26 11-34 9 34 9-10 14 2" stroke="#b5e3ec"/><circle cx="249" cy="158" r="42" fill="#112b39"/><circle cx="249" cy="158" r="33" stroke="#81a6ba" stroke-dasharray="1 6"/><path class="instrument-check" d="m231 158 12 12 24-28" stroke="#cee7df" stroke-width="3" pathLength="100"/><path d="M283 114l10-10m-7 0h7v7" stroke="#d3ac85"/></svg>